#!OML:ASF H:\Dans Jumps\Project 1\Capture day 1\Session 1\subject.ASF
:FULLY-SPECIFIED
:DEGREES
305
root 0.563441 14.4677 -16.2729 32.2352 -2.10591 -3.30447
lowerback 26.6955 0.794012 -1.10942
upperback 8.35229 0.878959 2.34611
thorax -5.54266 0.380153 2.94601
lowerneck -17.8512 1.1273 -1.29113
upperneck -6.22001 1.7522 -2.51025
head 1.01198 0.844409 -0.47143
rclavicle 2.23633e-015 1.34677e-014
rhumerus -33.0121 -16.2069 -70.8764
rradius 24.4492
rwrist 31.9965
rhand -17.855 -23.0781
rfingers 7.12502
rthumb 8.41023 -52.8906
lclavicle 2.23633e-015 1.34677e-014
lhumerus -31.9968 3.88317 79.7243
lradius 16.3282
lwrist 5.71803
lhand -28.199 -7.33328
lfingers 7.12502
lthumb -1.57809 22.6406
rfemur -82.2501 -1.17388 23.8686
rtibia 76.4037
rfoot -25.9294 -6.65278
rtoes -3.39026
lfemur -82.5622 7.35743 -21.9513
ltibia 76.8292
lfoot -24.176 10.8894
ltoes -14.2586
306
root 0.562218 14.4511 -16.2599 32.3564 -2.08659 -3.29059
lowerback 26.8436 0.794688 -1.1349
upperback 8.32194 0.873926 2.34781
thorax -5.6481 0.378992 2.96479
lowerneck -17.846 1.15063 -1.23387
upperneck -6.33572 1.7695 -2.5753
head 0.973915 0.852178 -0.501224
rclavicle 7.35503e-015 2.045e-014
rhumerus -33.0895 -16.1164 -70.9056
rradius 24.4945
rwrist 31.8645
rhand -17.9152 -22.9363
rfingers 7.12502
rthumb 8.35215 -52.7512
lclavicle 7.35503e-015 2.045e-014
lhumerus -32.0821 3.85555 79.709
lradius 16.3262
lwrist 5.79495
lhand -28.2276 -7.41385
lfingers 7.12502
lthumb -1.60571 22.5599
rfemur -82.4505 -1.12791 23.8261
rtibia 76.6464
rfoot -26.1833 -6.8681
rtoes -3.4426
lfemur -82.7611 7.28217 -21.9279
ltibia 77.0559
lfoot -24.3511 11.1925
ltoes -14.5066
307
root 0.56082 14.4348 -16.2455 32.4747 -2.06346 -3.27746
lowerback 26.9887 0.794554 -1.15631
upperback 8.29116 0.868983 2.35108
thorax -5.75255 0.377916 2.98299
lowerneck -17.8264 1.17975 -1.1523
upperneck -6.47148 1.78897 -2.6705
head 0.927535 0.860208 -0.544727
rclavicle -1.09332e-015 1.56543e-015
rhumerus -33.1634 -16.0535 -70.9188
rradius 24.5283
rwrist 31.7384
rhand -17.972 -22.7846
rfingers 7.12502
rthumb 8.2974 -52.6016
lclavicle -1.09332e-015 1.56543e-015
lhumerus -32.1583 3.84585 79.6829
lradius 16.3043
lwrist 5.84015
lhand -28.2617 -7.48059
lfingers 7.12502
lthumb -1.63871 22.4929
rfemur -82.6413 -1.08441 23.7861
rtibia 76.8881
rfoot -26.4323 -7.08072
rtoes -3.5001
lfemur -82.9504 7.20324 -21.8995
ltibia 77.2817
lfoot -24.5263 11.4995
ltoes -14.7542
308
root 0.559121 14.4185 -16.23 32.5957 -2.03526 -3.26383
lowerback 27.1277 0.793994 -1.17462
upperback 8.26356 0.864272 2.35505
thorax -5.85046 0.376894 3.00011
lowerneck -17.8134 1.19915 -1.09728
upperneck -6.60863 1.8005 -2.73527
head 0.881121 0.865502 -0.574455
rclavicle 1.67973e-014 -1.61513e-015
rhumerus -33.2248 -16.0035 -70.9321
rradius 24.5575
rwrist 31.6113
rhand -18.0226 -22.6817
rfingers 7.12502
rthumb 8.2485 -52.5007
lclavicle 1.67973e-014 -1.61513e-015
lhumerus -32.211 3.89969 79.6288
lradius 16.2524
lwrist 5.79417
lhand -28.3269 -7.55939
lfingers 7.12502
lthumb -1.70161 22.4136
rfemur -82.8301 -1.04069 23.7456
rtibia 77.1292
rfoot -26.6683 -7.29598
rtoes -3.55184
lfemur -83.139 7.11964 -21.8683
ltibia 77.5068
lfoot -24.6942 11.8056
ltoes -14.9825
309
root 0.55722 14.4021 -16.2133 32.7207 -2.00892 -3.24947
lowerback 27.2653 0.794296 -1.19321
upperback 8.2321 0.860496 2.35789
thorax -5.95203 0.376447 3.01591
lowerneck -17.8179 1.20898 -1.07326
upperneck -6.72548 1.80603 -2.76411
head 0.843551 0.868852 -0.587699
rclavicle 6.4605e-015 7.65321e-015
rhumerus -33.2871 -15.98 -70.9337
rradius 24.5772
rwrist 31.5095
rhand -18.0702 -22.6115
rfingers 7.12502
rthumb 8.20254 -52.4323
lclavicle 6.4605e-015 7.65321e-015
lhumerus -32.2591 3.99927 79.551
lradius 16.1825
lwrist 5.67843
lhand -28.3976 -7.62847
lfingers 7.12502
lthumb -1.76997 22.3439
rfemur -83.0192 -0.99321 23.7019
rtibia 77.3696
rfoot -26.8961 -7.51568
rtoes -3.61505
lfemur -83.3293 7.03601 -21.8395
ltibia 77.732
lfoot -24.8525 12.1262
ltoes -15.2313
310
root 0.554965 14.3859 -16.1957 32.8457 -1.9785 -3.23703
lowerback 27.4119 0.793452 -1.20694
upperback 8.19505 0.856531 2.36027
thorax -6.06408 0.376126 3.02857
lowerneck -17.8404 1.20699 -1.08439
upperneck -6.81762 1.80357 -2.74802
head 0.816105 0.869464 -0.581009
rclavicle -5.1684e-015 5.86415e-015
rhumerus -33.355 -15.9835 -70.9241
rradius 24.5869
rwrist 31.4408
rhand -18.1244 -22.5557
rfingers 7.12502
rthumb 8.15031 -52.3785
lclavicle -5.1684e-015 5.86415e-015
lhumerus -32.3062 4.15055 79.4448
lradius 16.0938
lwrist 5.4894
lhand -28.4702 -7.68582
lfingers 7.12502
lthumb -1.84005 22.286
rfemur -83.2021 -0.941481 23.6593
rtibia 77.6079
rfoot -27.1168 -7.7381
rtoes -3.66652
lfemur -83.5158 6.95214 -21.807
ltibia 77.9568
lfoot -25.0045 12.46
ltoes -15.4998
311
root 0.552361 14.3699 -16.1773 32.97 -1.94159 -3.22767
lowerback 27.5659 0.790306 -1.21448
upperback 8.15805 0.851333 2.36378
thorax -6.17954 0.375267 3.03938
lowerneck -17.8553 1.20258 -1.10141
upperneck -6.92291 1.79852 -2.72596
head 0.782849 0.869283 -0.571651
rclavicle 1.16786e-014 1.33434e-014
rhumerus -33.4193 -15.9814 -70.9206
rradius 24.5987
rwrist 31.3803
rhand -18.1823 -22.5537
rfingers 7.12502
rthumb 8.09436 -52.3787
lclavicle 1.16786e-014 1.33434e-014
lhumerus -32.345 4.34139 79.317
lradius 15.9924
lwrist 5.25821
lhand -28.5272 -7.72043
lfingers 7.12502
lthumb -1.8951 22.2509
rfemur -83.377 -0.885608 23.6192
rtibia 77.8428
rfoot -27.3299 -7.9635
rtoes -3.69963
lfemur -83.6983 6.86712 -21.7676
ltibia 78.1803
lfoot -25.1489 12.8067
ltoes -15.7873
312
root 0.549386 14.3543 -16.1578 33.0922 -1.89761 -3.22168
lowerback 27.735 0.785668 -1.2168
upperback 8.11237 0.846064 2.37093
thorax -6.31198 0.374659 3.05142
lowerneck -17.8607 1.19719 -1.11853
upperneck -7.02661 1.79203 -2.70753
head 0.748621 0.86833 -0.563567
rclavicle 1.73937e-015 -3.55328e-015
rhumerus -33.4974 -15.9788 -70.9074
rradius 24.6048
rwrist 31.3484
rhand -18.2494 -22.5827
rfingers 7.12502
rthumb 8.02959 -52.4102
lclavicle 1.73937e-015 -3.55328e-015
lhumerus -32.3966 4.55567 79.1764
lradius 15.8861
lwrist 5.01179
lhand -28.5849 -7.76116
lfingers 7.12502
lthumb -1.95079 22.2097
rfemur -83.5404 -0.824875 23.5816
rtibia 78.0733
rfoot -27.537 -8.19029
rtoes -3.69683
lfemur -83.8718 6.78057 -21.7187
ltibia 78.4026
lfoot -25.2918 13.1603
ltoes -16.084
313
root 0.546035 14.3395 -16.137 33.211 -1.84601 -3.22027
lowerback 27.9199 0.778596 -1.21325
upperback 8.05961 0.839773 2.38207
thorax -6.45983 0.373803 3.06504
lowerneck -17.8612 1.19194 -1.13483
upperneck -7.12771 1.7855 -2.6953
head 0.71458 0.86718 -0.557617
rclavicle 1.06847e-014 6.80837e-015
rhumerus -33.5832 -15.9705 -70.8878
rradius 24.6042
rwrist 31.3334
rhand -18.3149 -22.6294
rfingers 7.12502
rthumb 7.96644 -52.4593
lclavicle 1.06847e-014 6.80837e-015
lhumerus -32.4607 4.77981 79.0308
lradius 15.7782
lwrist 4.78007
lhand -28.6411 -7.80481
lfingers 7.12502
lthumb -2.0051 22.1655
rfemur -83.6882 -0.758122 23.5472
rtibia 78.2982
rfoot -27.7405 -8.42707
rtoes -3.65813
lfemur -84.0318 6.69374 -21.6579
ltibia 78.6222
lfoot -25.4415 13.5064
ltoes -16.3683
314
root 0.542359 14.3255 -16.1148 33.3302 -1.78594 -3.22312
lowerback 28.1182 0.769456 -1.20208
upperback 7.99698 0.833525 2.39738
thorax -6.62526 0.373261 3.07911
lowerneck -17.8607 1.18864 -1.14425
upperneck -7.22124 1.78035 -2.69662
head 0.683206 0.866159 -0.557037
rclavicle 3.926e-015 -1.01877e-015
rhumerus -33.6806 -15.9627 -70.8586
rradius 24.5957
rwrist 31.3321
rhand -18.3678 -22.681
rfingers 7.12502
rthumb 7.91534 -52.5128
lclavicle 3.926e-015 -1.01877e-015
lhumerus -32.541 4.9963 78.8881
lradius 15.6732
lwrist 4.58756
lhand -28.6993 -7.84615
lfingers 7.12502
lthumb -2.06134 22.1236
rfemur -83.8245 -0.687395 23.5173
rtibia 78.5179
rfoot -27.9431 -8.68063
rtoes -3.60192
lfemur -84.1827 6.6037 -21.5841
ltibia 78.8384
lfoot -25.5929 13.8381
ltoes -16.6187
315
root 0.538392 14.3121 -16.0912 33.4527 -1.7217 -3.22882
lowerback 28.3255 0.759252 -1.18695
upperback 7.92627 0.827506 2.41528
thorax -6.80409 0.373063 3.09394
lowerneck -17.8679 1.18748 -1.14622
upperneck -7.30392 1.77699 -2.70897
head 0.65698 0.865404 -0.561053
rclavicle -3.62782e-015 2.24627e-014
rhumerus -33.7815 -15.96 -70.8201
rradius 24.5762
rwrist 31.3465
rhand -18.3963 -22.7238
rfingers 7.12502
rthumb 7.88783 -52.5567
lclavicle -3.62782e-015 2.24627e-014
lhumerus -32.6338 5.17476 78.7611
lradius 15.5771
lwrist 4.47116
lhand -28.7535 -7.87981
lfingers 7.12502
lthumb -2.1136 22.0895
rfemur -83.9536 -0.611205 23.489
rtibia 78.7337
rfoot -28.1475 -8.95761
rtoes -3.5444
lfemur -84.3263 6.50892 -21.4993
ltibia 79.0516
lfoot -25.7431 14.1623
ltoes -16.846
